<svg width="30" height="30" viewBox="0 0 30 30" fill="none" xmlns="http://www.w3.org/2000/svg">
<circle cx="15" cy="15" r="15" fill="#5EA4A4" fill-opacity="0.5"/>
<path d="M14.9996 18.111C16.3251 18.111 17.3996 17.0663 17.3996 15.7777C17.3996 14.489 16.3251 13.4443 14.9996 13.4443C13.6741 13.4443 12.5996 14.489 12.5996 15.7777C12.5996 17.0663 13.6741 18.111 14.9996 18.111Z" stroke="white" stroke-width="1.5"/>
<path d="M7 16.0609C7 13.677 7 12.4855 7.5992 11.6299C7.85965 11.2581 8.19294 10.9399 8.58 10.6935C9.156 10.3256 9.8776 10.1941 10.9824 10.1475C11.5096 10.1475 11.9632 9.76637 12.0664 9.27248C12.1453 8.91071 12.3502 8.58651 12.6465 8.35466C12.9429 8.12282 13.3124 7.99755 13.6928 8.00004H16.3072C17.0976 8.00004 17.7784 8.53281 17.9336 9.27248C18.0368 9.76637 18.4904 10.1475 19.0176 10.1475C20.1216 10.1941 20.8432 10.3264 21.42 10.6935C21.808 10.9408 22.1416 11.2589 22.4008 11.6299C23 12.4855 23 13.677 23 16.0609C23 18.4448 23 19.6356 22.4008 20.4919C22.1403 20.8637 21.8071 21.1819 21.42 21.4283C20.5232 22 19.2744 22 16.7776 22H13.2224C10.7256 22 9.4768 22 8.58 21.4283C8.19315 21.1816 7.86014 20.8631 7.6 20.4911C7.42619 20.2394 7.29819 19.9605 7.2216 19.6667M20.6 13.4445H19.8" stroke="white" stroke-width="1.5" stroke-linecap="round"/>
</svg>
