<svg width="19" height="23" viewBox="0 0 19 23" fill="none" xmlns="http://www.w3.org/2000/svg">
<path d="M18 9.4001C18 14.6428 12.1148 20.1029 10.1386 21.7892C9.95446 21.926 9.73035 22 9.5 22C9.26965 22 9.04554 21.926 8.86144 21.7892C6.88519 20.1029 1 14.6428 1 9.4001C1 7.17226 1.89553 5.03566 3.48959 3.46033C5.08365 1.88501 7.24566 1 9.5 1C11.7543 1 13.9163 1.88501 15.5104 3.46033C17.1045 5.03566 18 7.17226 18 9.4001Z" stroke="white" stroke-width="2" stroke-linecap="round" stroke-linejoin="round"/>
<path d="M9.5 12.5501C11.2604 12.5501 12.6875 11.1398 12.6875 9.4001C12.6875 7.66039 11.2604 6.25007 9.5 6.25007C7.73959 6.25007 6.3125 7.66039 6.3125 9.4001C6.3125 11.1398 7.73959 12.5501 9.5 12.5501Z" stroke="white" stroke-width="2" stroke-linecap="round" stroke-linejoin="round"/>
</svg>
