<svg width="18" height="18" viewBox="0 0 18 18" fill="none" xmlns="http://www.w3.org/2000/svg">
<path d="M17 6.33334C17.0007 6.05166 16.9456 5.77263 16.8379 5.51235C16.7302 5.25208 16.572 5.01571 16.3724 4.81689L13.1831 1.62756C12.9843 1.42802 12.7479 1.26984 12.4876 1.16213C12.2274 1.05442 11.9483 0.999316 11.6667 1.00001M17 6.33334V15.2222C17 15.6937 16.8127 16.1459 16.4793 16.4793C16.1459 16.8127 15.6937 17 15.2222 17H2.77778C2.30628 17 1.8541 16.8127 1.5207 16.4793C1.1873 16.1459 1 15.6937 1 15.2222V2.77778C1 2.30629 1.1873 1.8541 1.5207 1.52071C1.8541 1.18731 2.30628 1.00001 2.77778 1.00001H11.6667M17 6.33334H12.5556C12.3198 6.33334 12.0937 6.23969 11.927 6.07299C11.7603 5.90629 11.6667 5.6802 11.6667 5.44445V1.00001" stroke="#0A374C" stroke-width="2" stroke-linecap="round" stroke-linejoin="round"/>
</svg>
